# xmcd
#
# Track frame offsets: 
#        150
#        26287
#        54847
#        69612
#        95145
#        117045
#        142715
#        165080
#        201635
#        218527
#        239972
#        272770
#        285750
#        306137
#        320025
#
# Disc length: 4501 seconds
#
# Revision: 0
# Processed by: cddbd v1.5.2PL0 Copyright (c) Steve Scherf et al.
# Submitted via: ExactAudioCopy v0.99pb4
#
DISCID=d111930f
DTITLE=Shirley Scott - Nothin' But The Blues
DYEAR=2000
DGENRE=Blues
TTITLE0=Blues For Members Only
TTITLE1=Everybody Loves A Lover
TTITLE2=Marchin' To The Riverside
TTITLE3=Southern Comfort
TTITLE4=Freedom Dance
TTITLE5=Sent For You Yesterday
TTITLE6=Shirley
TTITLE7=The Lamp Is Low
TTITLE8=Blue Piano
TTITLE9=I've Grown Accustomed To Her Face
TTITLE10=We're Goin' Home
TTITLE11=Toys In The Attic
TTITLE12=Little Miss Know It All
TTITLE13=Blue Bongo
TTITLE14=The Feeling Of Jazz
EXTD=
EXTT0=
EXTT1=
EXTT2=
EXTT3=
EXTT4=
EXTT5=
EXTT6=
EXTT7=
EXTT8=
EXTT9=
EXTT10=
EXTT11=
EXTT12=
EXTT13=
EXTT14=
PLAYORDER=
